# xmcd
#
# Track frame offsets: 
#        150
#        15206
#        32409
#        54629
#        82059
#        93471
#        109474
#        133488
#        144772
#        163949
#
# Disc length: 2369 seconds
#
# Revision: 0
# Processed by: cddbd v1.5.2PL0 Copyright (c) Steve Scherf et al.
# Submitted via: ExactAudioCopy v0.95b4
#
DISCID=83093f0a
DTITLE=Matt Anderson - Solo at Sessions
DYEAR=2005
DGENRE=Blues
TTITLE0=Leavin' Blues
TTITLE1=Ain't No Sunshine
TTITLE2=When My Angel Gets The Blues
TTITLE3=I Play The Fool For You
TTITLE4=One Size Never Fits
TTITLE5=Rollin' Home
TTITLE6=Have You Got The Blues
TTITLE7=If I Can't Have You
TTITLE8=Tell Me
TTITLE9=My Old Friend The Blues
EXTD=
EXTT0=
EXTT1=
EXTT2=
EXTT3=
EXTT4=
EXTT5=
EXTT6=
EXTT7=
EXTT8=
EXTT9=
PLAYORDER=
